[IMG]http://www.shotpix.com/images/99622022655856669661.jpg[/IMG]

General
Complete name                            : Krewella - Alive [Music Video] 1080p [Sbyky].mp4
Format                                   : MPEG-4
Format profile                           : Base Media / Version 2
Codec ID                                 : mp42
File size                                : 80.3 MiB
Duration                                 : 3mn 26s
Overall bit rate mode                    : Variable
Overall bit rate                         : 3 260 Kbps
Encoded date                             : UTC 2013-04-08 05:36:58
Tagged date                              : UTC 2013-04-08 05:36:58

Video
ID                                       : 1
Format                                   : AVC
Format/Info                              : Advanced Video Codec
Format profile                           : High@L4.0
Format settings, CABAC                   : Yes
Format settings, ReFrames                : 1 frame
Codec ID                                 : avc1
Codec ID/Info                            : Advanced Video Coding
Duration                                 : 3mn 26s
Bit rate                                 : 3 066 Kbps
Maximum bit rate                         : 4 888 Kbps
Width                                    : 1 920 pixels
Height                                   : 1 080 pixels
Display aspect ratio                     : 16:9
Frame rate mode                          : Constant
Frame rate                               : 23.976 fps
Color space                              : YUV
Chroma subsampling                       : 4:2:0
Bit depth                                : 8 bits
Scan type                                : Progressive
Bits/(Pixel*Frame)                       : 0.062
Stream size                              : 75.5 MiB (94%)
Tagged date                              : UTC 2013-04-08 05:37:02

Audio
ID                                       : 2
Format                                   : AAC
Format/Info                              : Advanced Audio Codec
Format profile                           : LC
Codec ID                                 : 40
Duration                                 : 3mn 26s
Bit rate mode                            : Variable
Bit rate                                 : 192 Kbps
Maximum bit rate                         : 203 Kbps
Channel(s)                               : 2 channels
Channel positions                        : Front: L R
Sampling rate                            : 44.1 KHz
Compression mode                         : Lossy
Stream size                              : 4.73 MiB (6%)
Title                                    : IsoMedia File Produced by Google, 5-11-2011
Encoded date                             : UTC 2013-04-08 05:37:01
Tagged date                              : UTC 2013-04-08 05:37:02

Shared By Sbyky
[IMG]http://www.shotpix.com/images/76014917432015785852.gif[/IMG]
[IMG]http://www.shotpix.com/images/54100788659511547411.gif[/IMG]